# Blender v2.79 (sub 0) OBJ File: 'bistecca_google.blend'
# www.blender.org
mtllib bistecca_google.mtl
o Plane
v 0.081772 0.000000 -0.019881
v -0.053441 0.000000 -0.562151
v 0.064758 0.000000 0.549755
v -0.655528 0.000000 0.052168
v -0.961418 0.000000 -0.378867
v -0.637712 0.000000 0.680525
v 0.712368 0.000000 -0.144460
v 0.660506 0.000000 -0.727050
v 0.725089 0.000000 0.491208
v -0.053441 0.791451 -0.562151
v 0.064758 0.791451 0.549755
v 0.081772 0.791451 -0.019881
v -0.655528 0.791451 0.052168
v 0.712368 0.791451 -0.144460
v -0.961418 0.791451 -0.378867
v 0.660506 0.791451 -0.727050
v 0.725089 0.791451 0.491208
v -0.637712 0.791451 0.680525
v 0.087540 0.000000 1.149023
v 0.090407 0.075432 1.224438
v 1.431164 0.000000 -0.234367
v 1.506451 0.075432 -0.243784
v -0.173977 0.000000 -1.089736
v -0.190802 0.075432 -1.163376
v 1.405716 0.075432 -0.770477
v 1.329477 0.000000 -0.766034
v -1.912097 0.075432 -0.027634
v -1.865785 0.000000 -0.044745
v -1.395659 0.075432 0.700951
v -1.305403 0.000000 0.698518
v 1.498127 0.075432 0.342767
v 1.418382 0.000000 0.358080
v -1.196607 0.075432 -0.856190
v -1.163070 0.000000 -0.788125
v -0.459644 0.075432 1.265359
v -0.482767 0.000000 1.189415
v 0.682135 0.075432 1.186513
v 0.686824 0.000000 1.110614
v 0.451314 0.075432 -1.295855
v 0.478737 0.000000 -1.221289
v -1.315641 0.791451 0.698794
v -1.395659 0.716019 0.700951
v 0.687066 0.791451 1.106698
v 0.682135 0.716019 1.186513
v 1.324621 0.791451 -0.765751
v 1.405716 0.716019 -0.770477
v -1.163266 0.791451 -0.788524
v -1.196607 0.716019 -0.856190
v -1.871038 0.791451 -0.042804
v -1.912097 0.716019 -0.027634
v -0.483380 0.791451 1.187403
v -0.459644 0.716019 1.265359
v 0.090407 0.716019 1.224438
v 0.087392 0.791451 1.145132
v 1.415694 0.791451 0.358596
v 1.498127 0.716019 0.342767
v 1.506451 0.716019 -0.243784
v 1.426369 0.791451 -0.233767
v 0.478569 0.791451 -1.221748
v 0.451314 0.716019 -1.295855
v -0.190802 0.716019 -1.163376
v -0.174176 0.791451 -1.090605
v -0.985477 0.000000 1.137609
v -1.092281 0.000000 1.068731
v -1.036304 0.075432 1.208097
v -1.143211 0.075432 1.139477
v -1.143211 0.716019 1.139477
v -1.036304 0.716019 1.208097
v -1.103308 0.791451 1.067636
v -0.996409 0.791451 1.136280
v -2.010986 0.000000 -0.261796
v -1.979635 0.000000 -0.394563
v -2.097007 0.075432 -0.304044
v -2.065691 0.075432 -0.436844
v -2.065691 0.716019 -0.436844
v -2.097007 0.716019 -0.304044
v -1.984624 0.791451 -0.392206
v -2.015939 0.791451 -0.259406
v -1.283667 0.000000 0.198816
v -1.393054 0.000000 0.069302
v -1.177536 0.000000 0.089492
v -1.374099 0.075432 0.205282
v -1.483487 0.075432 0.075768
v -1.483487 0.716019 0.075768
v -1.374099 0.716019 0.205282
v -1.403313 0.791451 0.070036
v -1.293925 0.791451 0.199550
v -1.187795 0.791451 0.090226
v 1.276523 0.000000 0.760784
v 1.132276 0.000000 0.914677
v 1.339707 0.075432 0.805937
v 1.196389 0.075432 0.960313
v 0.937622 0.000000 -1.181499
v 1.117139 -0.000000 -1.075093
v 0.966371 0.075432 -1.254193
v 1.146041 0.075432 -1.148434
v 1.196389 0.716019 0.960313
v 1.339707 0.716019 0.805937
v 1.133810 0.791451 0.910193
v 1.277610 0.791451 0.756086
v 1.146041 0.716019 -1.148434
v 0.966371 0.716019 -1.254193
v 1.111791 0.791451 -1.075526
v 0.932323 0.791451 -1.182022
vt 0.892730 0.500911
vt 0.960736 0.533363
vt 0.949255 0.542708
vt 0.891412 0.515294
vt 0.324753 0.094516
vt 0.181930 0.120575
vt 0.142176 0.031607
vt 0.317325 0.000140
vt 0.239856 0.792328
vt 0.208019 0.716118
vt 0.300479 0.674865
vt 0.324165 0.745546
vt 0.518118 0.217425
vt 0.505434 0.159926
vt 0.587906 0.116840
vt 0.615029 0.207067
vt 0.149210 0.675513
vt 0.258989 0.613543
vt 0.406002 0.090621
vt 0.424654 0.004221
vt 0.426139 0.532189
vt 0.386801 0.503819
vt 0.389208 0.489672
vt 0.438993 0.525271
vt 0.355255 0.818584
vt 0.405646 0.709352
vt 0.429177 0.785435
vt 0.604212 0.551987
vt 0.643030 0.498116
vt 0.650497 0.510803
vt 0.619092 0.555052
vt 0.139768 0.744329
vt 0.108562 0.751109
vt 0.045068 0.748294
vt 0.526573 0.654960
vt 0.579942 0.634486
vt 0.594859 0.640233
vt 0.536179 0.661653
vt 0.623451 0.769041
vt 0.505920 0.711160
vt 0.520820 0.703168
vt 0.629961 0.756162
vt 0.346880 0.387659
vt 0.418860 0.378649
vt 0.457780 0.461628
vt 0.357026 0.483489
vt 0.343857 0.563853
vt 0.375815 0.632804
vt 0.103736 0.631445
vt 0.220398 0.552278
vt 0.889128 0.675656
vt 0.985073 0.689237
vt 0.968942 0.756827
vt 0.880592 0.750621
vt 0.709289 0.563137
vt 0.702794 0.644928
vt 0.627040 0.637585
vt 0.611897 0.622026
vt 0.804181 0.583310
vt 0.803992 0.657479
vt 0.783872 0.727981
vt 0.855815 0.814496
vt 0.766462 0.797793
vt 0.659509 0.700679
vt 0.810538 0.505375
vt 0.893189 0.594078
vt 0.984680 0.613311
vt 0.732818 0.497943
vt 0.983770 0.759454
vt 0.947650 0.808141
vt 0.939980 0.795374
vt 0.300124 0.510379
vt 0.159564 0.330941
vt 0.190617 0.376705
vt 0.144841 0.449064
vt 0.077696 0.386522
vt 0.489217 0.331716
vt 0.512202 0.282771
vt 0.604455 0.308000
vt 0.564226 0.383974
vt 0.473656 0.350023
vt 0.539603 0.409463
vt 0.478457 0.119255
vt 0.536101 0.055229
vt 0.274380 0.390162
vt 0.262668 0.483489
vt 0.142129 0.257911
vt 0.037579 0.305569
vt 0.089643 0.159029
vt 0.010174 0.128655
vt 0.080906 0.170086
vt 0.084069 0.196945
vt 0.000140 0.209880
vt 0.001937 0.149912
vt 0.123812 0.238820
vt 0.026499 0.280599
vt 0.463397 0.591601
vt 0.283198 0.848157
vt 0.459046 0.105567
vt 0.508513 0.033768
vt 0.487048 0.664130
vt 0.217674 0.863114
vt 0.290944 0.860595
vt 0.213969 0.877940
vt 0.486565 0.718144
vt 0.500817 0.658370
vt 0.500817 0.721713
vt 0.359995 0.497963
vt 0.292059 0.498284
vt 0.360674 0.483770
vt 0.018998 0.729644
vt 0.037589 0.757633
vt 0.001752 0.730222
vt 0.130324 0.763414
vt 0.156957 0.825509
vt 0.142727 0.832731
vt 0.115889 0.771666
vt 0.360976 0.831512
vt 0.476438 0.585573
vt 0.212744 0.540146
vt 0.017234 0.712868
vt 0.475444 0.742592
vt 0.093450 0.621066
vt 0.201280 0.859287
vt 0.434950 0.798401
vt 0.658538 0.489720
vt 0.736306 0.483770
vt 0.664850 0.502764
vt 0.979739 0.554692
vt 0.999860 0.614861
vt 0.967497 0.562783
vt 0.922117 0.822209
vt 0.851987 0.828347
vt 0.916228 0.808912
vt 0.501098 0.691264
vt 0.517309 0.686680
vt 0.596567 0.618256
vt 0.811896 0.491074
vt 0.999860 0.691205
vt 0.763033 0.811517
vt 0.203857 0.383455
vt 0.162854 0.459249
vt 0.196333 0.873758
vt 0.000140 0.710028
vt 0.095043 0.761076
vt 0.489434 0.747637
vn 0.2122 0.3725 0.9034
vn 0.5448 0.3718 0.7516
vn 0.2332 0.9073 0.3498
vn 0.1098 0.9089 0.4023
vn -0.2281 -0.3809 -0.8960
vn -0.3385 -0.3768 -0.8622
vn -0.3387 0.3755 -0.8627
vn -0.2283 0.3789 -0.8968
vn 0.0000 -1.0000 0.0000
vn 0.9220 -0.3785 -0.0810
vn 0.8654 -0.3583 -0.3502
vn 0.8606 0.3715 -0.3482
vn 0.9170 0.3905 -0.0807
vn -0.0628 -0.3733 -0.9256
vn -0.0628 0.3718 -0.9261
vn 0.3982 -0.8988 -0.1832
vn 0.3121 -0.8991 -0.3069
vn 0.6272 -0.3613 -0.6899
vn 0.0259 -0.9248 0.3796
vn 0.1127 -0.9032 0.4141
vn -0.9048 0.3691 0.2124
vn -0.6644 0.3737 0.6472
vn -0.3181 0.9058 0.2799
vn -0.4151 0.9023 0.1163
vn -0.2200 -0.9347 0.2792
vn -0.3009 -0.7971 0.5235
vn -0.5793 0.2170 0.7857
vn -0.4494 0.2383 0.8610
vn -0.2333 0.9251 0.2995
vn -0.3148 0.7829 0.5366
vn -0.7245 0.3872 -0.5701
vn -0.3134 0.9073 -0.2803
vn -0.1444 0.9168 -0.3723
vn 0.0634 -0.3847 0.9209
vn 0.2132 -0.3616 0.9076
vn 0.0634 0.3948 0.9165
vn -0.1438 -0.9174 -0.3709
vn -0.0964 -0.9206 -0.3784
vn 0.0000 1.0000 0.0000
vn 0.3846 0.9225 -0.0327
vn 0.3844 0.9059 -0.1774
vn -0.2804 0.9561 0.0849
vn -0.0160 0.9111 -0.4118
vn -0.0969 0.9197 -0.3805
vn 0.0255 0.9291 0.3690
vn 0.3989 0.9133 0.0821
vn -0.0101 0.9189 0.3943
vn 0.6265 0.3698 -0.6860
vn 0.3014 0.9050 -0.3002
vn -0.0160 -0.9118 -0.4103
vn -0.8949 -0.3936 0.2102
vn -0.6623 -0.3906 0.6394
vn 0.7960 -0.3692 0.4795
vn 0.9159 -0.3719 0.1508
vn 0.9128 0.3797 0.1499
vn 0.7935 0.3746 0.4796
vn 0.5477 -0.3642 0.7532
vn -0.0076 -0.3764 0.9264
vn -0.0071 0.3827 0.9239
vn -0.8349 -0.4541 0.3108
vn -0.8500 0.4219 0.3153
vn -0.7242 -0.3928 -0.5668
vn -0.9196 -0.3698 0.1328
vn -0.5774 -0.2394 0.7805
vn -0.9246 0.3579 0.1307
vn -0.4424 -0.2600 0.8582
vn 0.3980 -0.9167 -0.0336
vn -0.0107 -0.9163 0.4002
vn 0.2826 -0.3702 -0.8849
vn 0.2842 0.3733 -0.8831
vn 0.4064 -0.9098 0.0839
vn -0.1199 -0.9123 0.3915
vn -0.3125 -0.3853 0.8683
vn 0.3625 -0.9072 0.2134
vn 0.1241 -0.9069 -0.4024
vn -0.4638 -0.8702 0.1659
vn -0.2585 -0.9629 0.0779
vn -0.3857 -0.9161 0.1090
vn -0.3052 -0.9097 -0.2815
vn 0.2367 -0.9026 0.3596
vn -0.2963 -0.9167 0.2681
vn -0.3095 0.3791 0.8720
vn -0.1270 0.9106 0.3932
vn 0.3594 0.9097 0.2080
vn 0.1202 0.9082 -0.4007
vn -0.4838 0.8572 0.1763
usemtl map_Ka
s 1
f 44/1/1 97/2/2 99/3/3 43/4/4
f 24/5/5 33/6/6 48/7/7 61/8/8
f 6/9/9 4/10/9 1/11/9 3/12/9
f 22/13/10 25/14/11 46/15/12 57/16/13
f 4/10/9 5/17/9 2/18/9 1/11/9
f 39/19/14 24/5/5 61/8/8 60/20/15
f 26/21/16 94/22/17 96/23/18 25/24/11
f 19/25/19 3/12/9 9/26/9 38/27/20
f 42/28/21 67/29/22 69/30/23 41/31/24
f 81/32/9 80/33/25 28/34/26 5/17/9 4/10/9
f 50/35/27 84/36/28 86/37/29 49/38/30
f 48/39/7 75/40/31 77/41/32 47/42/33
f 20/43/34 37/44/35 44/45/1 53/46/36
f 1/11/9 2/18/9 8/47/9 7/48/9
f 3/12/9 1/11/9 7/48/9 9/26/9
f 5/17/9 34/49/37 23/50/38 2/18/9
f 14/51/39 58/52/40 45/53/41 16/54/39
f 41/31/24 18/55/39 13/56/39 88/57/39 87/58/42
f 18/55/39 11/59/39 12/60/39 13/56/39
f 10/61/39 16/54/39 59/62/43 62/63/44
f 13/56/39 12/60/39 10/61/39 15/64/39
f 54/65/45 43/4/4 17/66/39 11/59/39
f 17/66/39 55/67/46 58/52/40 14/51/39
f 51/68/47 54/65/45 11/59/39 18/55/39
f 46/69/12 101/70/48 103/71/49 45/53/41
f 15/64/39 10/61/39 62/63/44 47/42/33
f 12/60/39 14/51/39 16/54/39 10/61/39
f 11/59/39 17/66/39 14/51/39 12/60/39
f 2/18/9 23/50/38 40/72/50 8/47/9
f 29/73/51 66/74/52 67/75/22 42/76/21
f 91/77/53 31/78/54 56/79/55 98/80/56
f 37/44/35 92/81/57 97/82/2 44/45/1
f 31/78/54 22/13/10 57/16/13 56/79/55
f 25/14/11 96/83/18 101/84/48 46/15/12
f 35/85/58 20/43/34 53/46/36 52/86/59
f 82/87/60 29/73/51 42/76/21 85/88/61
f 33/6/6 74/89/62 75/90/31 48/7/7
f 73/91/63 27/92/64 50/93/27 76/94/65
f 27/92/64 83/95/66 84/96/28 50/93/27
f 7/48/9 8/47/9 26/21/16 21/97/67
f 36/98/68 6/9/9 3/12/9 19/25/19
f 95/99/69 39/19/14 60/20/15 102/100/70
f 9/26/9 7/48/9 21/97/67 32/101/71
f 63/102/72 36/98/68 35/103/58 65/104/73
f 89/105/74 32/101/71 31/106/54 91/107/53
f 93/108/75 40/72/50 39/109/14 95/110/69
f 71/111/76 28/34/26 27/112/64 73/113/63
f 79/114/77 30/115/78 29/116/51 82/117/60
f 36/98/68 19/25/19 20/118/34 35/103/58
f 32/101/71 21/97/67 22/119/10 31/106/54
f 40/72/50 23/50/38 24/120/5 39/109/14
f 21/97/67 26/21/16 25/24/11 22/119/10
f 28/34/26 71/111/76 72/121/79 34/49/37 5/17/9
f 30/115/78 79/114/77 81/32/9 4/10/9 6/9/9
f 38/27/20 9/26/9 32/101/71 89/105/74 90/122/80
f 23/50/38 34/49/37 33/123/6 24/120/5
f 63/102/72 64/124/81 30/115/78 6/9/9 36/98/68
f 19/25/19 38/27/20 37/125/35 20/118/34
f 8/47/9 40/72/50 93/108/75 94/22/17 26/21/16
f 68/126/82 52/127/59 51/68/47 70/128/83
f 98/129/56 56/130/55 55/67/46 100/131/84
f 102/132/70 60/133/15 59/62/43 104/134/85
f 76/135/65 50/35/27 49/38/30 78/136/86
f 85/137/61 42/28/21 41/31/24 87/58/42
f 52/127/59 53/138/36 54/65/45 51/68/47
f 56/130/55 57/139/13 58/52/40 55/67/46
f 60/133/15 61/140/8 62/63/44 59/62/43
f 57/139/13 46/69/12 45/53/41 58/52/40
f 49/38/30 15/64/39 47/42/33 77/41/32 78/136/86
f 86/37/29 88/57/39 13/56/39 15/64/39 49/38/30
f 43/4/4 99/3/3 100/131/84 55/67/46 17/66/39
f 61/140/8 48/39/7 47/42/33 62/63/44
f 69/30/23 70/128/83 51/68/47 18/55/39 41/31/24
f 53/138/36 44/1/1 43/4/4 54/65/45
f 16/54/39 45/53/41 103/71/49 104/134/85 59/62/43
f 65/141/73 35/85/58 52/86/59 68/142/82
f 63/102/72 65/104/73 66/143/52 64/124/81
f 68/126/82 70/128/83 69/30/23 67/29/22
f 65/141/73 68/142/82 67/75/22 66/74/52
f 30/115/78 64/124/81 66/143/52 29/116/51
f 71/111/76 73/113/63 74/144/62 72/121/79
f 76/135/65 78/136/86 77/41/32 75/40/31
f 73/91/63 76/94/65 75/90/31 74/89/62
f 34/49/37 72/121/79 74/144/62 33/123/6
f 79/114/77 80/33/25 81/32/9
f 86/37/29 87/58/42 88/57/39
f 79/114/77 82/117/60 83/145/66 80/33/25
f 85/137/61 87/58/42 86/37/29 84/36/28
f 82/87/60 85/88/61 84/96/28 83/95/66
f 28/34/26 80/33/25 83/145/66 27/112/64
f 89/105/74 91/107/53 92/146/57 90/122/80
f 93/108/75 95/110/69 96/23/18 94/22/17
f 98/129/56 100/131/84 99/3/3 97/2/2
f 102/132/70 104/134/85 103/71/49 101/70/48
f 91/77/53 98/80/56 97/82/2 92/81/57
f 95/99/69 102/100/70 101/84/48 96/83/18
f 38/27/20 90/122/80 92/146/57 37/125/35
